# xmcd CD database file
#
# Track frame offsets:
#	150
#	33897
#	61180
#	85871
#	120268
#	144295
#	199172
#	243270
#
# Disc length: 3820 seconds
#
# Revision: 0
# Processed by: cddbd v1.5.2PL0 Copyright (c) Steve Scherf et al.
# Submitted via: CDex 1.51
#
DISCID=5b0eea08
DTITLE=Fritjof Capra - The Tao of Physics
DYEAR=1990
DGENRE=New Age
TTITLE0=01
TTITLE1=02
TTITLE2=03
TTITLE3=04
TTITLE4=05
TTITLE5=06
TTITLE6=07
TTITLE7=08
EXTD=YEAR: 1990
EXTT0=
EXTT1=
EXTT2=
EXTT3=
EXTT4=
EXTT5=
EXTT6=
EXTT7=
PLAYORDER=
